<?xml version="1.0" standalone="no"?>
<!DOCTYPE svg PUBLIC "-//W3C//DTD SVG 20010904//EN"
 "http://www.w3.org/TR/2001/REC-SVG-20010904/DTD/svg10.dtd">
<svg version="1.0" xmlns="http://www.w3.org/2000/svg"
 width="1024.000000pt" height="1024.000000pt" viewBox="0 0 1024.000000 1024.000000"
 preserveAspectRatio="xMidYMid meet">

<g transform="translate(0.000000,1024.000000) scale(0.100000,-0.100000)"
fill="#003932" stroke="none">
<path d="M4915 7095 c-282 -46 -504 -152 -695 -333 -240 -226 -378 -500 -380
-750 -1 -131 110 -212 208 -152 45 28 69 72 77 144 33 309 260 606 573 748
128 58 240 80 407 81 154 1 216 -7 335 -45 259 -83 490 -289 604 -541 37 -80
51 -131 66 -238 17 -121 69 -176 156 -166 57 6 99 38 119 92 49 128 -57 450
-219 665 -185 246 -473 425 -778 485 -117 23 -360 28 -473 10z"/>
<path d="M5047 6337 c-52 -17 -103 -60 -128 -110 -18 -35 -21 -53 -16 -119 5
-75 4 -78 -17 -78 -72 0 -298 -93 -340 -139 l-19 -21 599 0 599 1 -25 21 c-44
37 -202 107 -292 129 l-86 22 10 29 c28 80 -19 198 -97 243 -52 31 -132 40
-188 22z"/>
<path d="M2954 5725 c-19 -19 -23 -31 -18 -48 4 -12 59 -74 124 -137 171 -169
210 -254 231 -506 5 -71 17 -157 24 -191 28 -124 129 -284 228 -364 60 -48
176 -107 228 -115 35 -6 36 -8 59 -85 59 -207 170 -391 330 -551 l107 -108
-389 0 c-313 0 -395 -3 -423 -14 -71 -30 -86 -134 -27 -188 25 -21 43 -27 104
-32 40 -3 782 -5 1648 -3 1463 2 1577 3 1606 19 31 17 64 70 64 103 0 29 -30
76 -63 95 -30 19 -53 20 -421 20 l-390 0 82 83 c196 196 312 406 373 676 25
111 35 354 20 478 -33 266 -162 528 -364 739 -105 111 -126 125 -134 95 l-5
-21 -820 0 c-811 0 -820 0 -836 20 -17 20 -18 20 -84 -40 -108 -98 -224 -251
-286 -377 -14 -29 -31 -52 -37 -50 -5 2 -119 121 -253 265 l-243 262 -205 0
-205 0 -25 -25z m1619 -306 c37 -19 57 -52 57 -96 0 -40 -3 -45 -68 -96 -95
-76 -193 -184 -231 -256 -18 -34 -43 -104 -56 -157 -13 -52 -29 -102 -35 -110
-7 -7 -30 -19 -51 -24 -51 -14 -102 7 -124 50 -15 29 -15 38 0 113 33 166 112
313 235 437 134 136 207 173 273 139z m-337 -903 c43 -43 46 -90 8 -135 -51
-61 -144 -47 -180 27 -22 46 -9 89 35 119 50 34 96 30 137 -11z"/>
<path d="M6306 5658 c4 -7 22 -31 39 -53 18 -22 58 -84 89 -137 l57 -98 42 0
c60 -1 115 -29 170 -89 69 -73 92 -129 92 -221 0 -98 -33 -170 -111 -238 l-54
-47 0 -162 c0 -90 3 -163 6 -163 21 0 155 82 211 129 157 132 227 282 228 486
0 89 -4 124 -24 183 -68 208 -236 365 -436 407 -90 19 -320 21 -309 3z"/>
</g>
</svg>
